<svg width="588" height="312" viewBox="0 0 588 312" fill="none" xmlns="http://www.w3.org/2000/svg">
<path d="M24.05 220.619C11.74 217.009 0.800003 212.959 0.800003 202.979C0.800003 193.759 10.01 187.388 23.45 187.388C37.39 187.388 46.26 194.189 46.26 204.529H39.72C39.72 195.829 33.17 190.059 22.67 190.059C13.11 190.059 6.67 194.799 6.67 201.059C6.67 208.469 15.88 211.309 26.67 214.489C36.23 217.329 47.76 221.379 47.76 232.049C47.76 241.949 38.03 248.669 23.76 248.669C9.48999 248.669 0 241.869 0 231.539H6.55C6.55 240.229 13.55 245.999 24.55 245.999C34.96 245.999 42.02 240.919 42.02 234.119C41.95 226.169 31.97 222.949 24.05 220.619Z" fill="white"/>
<path d="M61.0699 248.169V187.909H106.07V191.099H67.58V215.719H101.16V218.898H67.58V244.989H106.06V248.169H61.0699Z" fill="white"/>
<path d="M119.18 187.909H127.18L153.09 240.909L178.75 187.909H186.67V248.169H180.12V192.729L153.27 248.169H149.58L122.64 192.729V248.169H119.18V187.909Z" fill="white"/>
<path d="M197.44 248.169L225.25 187.909H229.04L256.76 248.169H249.96L241.69 230.268H209.49L201.23 248.169H197.44ZM240.44 227.599L225.55 195.489L210.74 227.599H240.44Z" fill="white"/>
<path d="M309.88 157.589C315.931 157.862 321.788 159.803 326.804 163.199C331.82 166.595 335.799 171.312 338.3 176.829C338.335 176.901 338.353 176.981 338.353 177.061C338.353 177.142 338.334 177.222 338.298 177.294C338.263 177.366 338.211 177.43 338.147 177.479C338.083 177.528 338.009 177.562 337.93 177.579L336.81 178.069C336.44 178.199 336.31 178.069 336.19 177.819C330.36 165.909 321.05 161.439 306.65 161.439C291.26 161.439 274.88 172.859 274.88 196.569C274.88 222.009 293.37 240.499 314.35 240.499C319.137 240.528 323.877 239.548 328.26 237.624C332.643 235.699 336.572 232.873 339.79 229.329C339.91 228.959 340.16 228.959 340.53 229.329L340.91 229.699C341.017 229.788 341.088 229.913 341.11 230.051C341.132 230.189 341.104 230.33 341.03 230.449C333.09 241.369 320.92 246.829 307.52 246.829C282.7 246.829 262.47 228.459 262.47 202.149C262.47 187.149 268.55 173.359 281.47 164.919C289.915 159.506 299.87 156.938 309.88 157.589Z" fill="white"/>
<path d="M357.66 182.289C358.04 182.289 358.16 182.419 358.16 182.789V219.529C358.16 228.959 359.28 233.679 362.75 237.029C364.61 239.139 367.47 240.129 371.32 240.129C377.65 240.129 386.21 236.529 391.55 230.819C391.596 230.769 391.63 230.711 391.651 230.647C391.672 230.583 391.678 230.515 391.67 230.449V182.789C391.67 182.419 391.8 182.289 392.17 182.289H402.84C403.21 182.289 403.46 182.419 403.46 182.789V244.969C403.464 245.051 403.451 245.134 403.422 245.211C403.392 245.288 403.346 245.358 403.288 245.417C403.23 245.475 403.159 245.52 403.082 245.55C403.005 245.58 402.923 245.593 402.84 245.589H392.17C391.8 245.589 391.67 245.339 391.67 244.969V237.169C391.67 236.679 391.17 236.299 390.8 236.679C383.73 242.009 374.05 245.609 365.61 245.609C350.34 245.609 346.37 239.609 346.37 220.539V182.789C346.37 182.419 346.62 182.289 346.99 182.289H357.66Z" fill="white"/>
<path d="M445.04 181.669C463.91 181.669 480.29 194.829 480.29 214.069C480.29 233.309 463.91 246.169 445.04 246.169C425.93 246.169 409.67 233.389 409.67 214.029C409.67 194.669 425.93 181.669 445.04 181.669ZM468.5 217.789C469.5 200.539 461.05 184.529 445.66 183.529C431.39 182.529 422.58 194.699 421.58 209.599C420.58 226.849 429.16 242.489 445.04 243.479C458.82 244.469 467.51 232.679 468.5 217.789Z" fill="white"/>
<path d="M486.5 182.789C486.5 182.419 486.74 182.289 487.12 182.289H497.79C498.16 182.289 498.29 182.419 498.29 182.789V198.789C498.291 198.904 498.327 199.017 498.393 199.112C498.46 199.207 498.554 199.279 498.662 199.319C498.771 199.359 498.889 199.365 499.001 199.337C499.113 199.308 499.214 199.246 499.29 199.159C504.13 194.319 508.1 188.738 513.94 184.888C516.42 183.278 519.4 182.029 522.5 182.529C523.258 182.617 523.986 182.875 524.63 183.283C525.274 183.692 525.817 184.241 526.22 184.888C526.269 184.936 526.306 184.994 526.328 185.058C526.351 185.122 526.358 185.191 526.35 185.259V195.259C526.35 195.889 525.6 196.009 525.23 195.509C523.74 191.669 521.38 190.299 518.78 190.299C511.78 190.299 503.01 200.109 498.42 204.449C498.374 204.498 498.34 204.556 498.319 204.62C498.298 204.684 498.292 204.752 498.3 204.819V244.969C498.3 245.339 498.17 245.589 497.8 245.589H487.12C487.037 245.594 486.954 245.583 486.876 245.553C486.798 245.524 486.727 245.479 486.668 245.42C486.609 245.361 486.564 245.291 486.535 245.213C486.506 245.135 486.494 245.051 486.5 244.969V182.789Z" fill="white"/>
<path d="M556.5 181.669C574.12 181.669 587.03 194.829 587.4 213.569V214.169C587.406 214.251 587.394 214.335 587.365 214.413C587.336 214.491 587.29 214.561 587.232 214.62C587.173 214.679 587.102 214.724 587.024 214.753C586.946 214.783 586.863 214.794 586.78 214.789H535.9C535.4 214.789 535.28 215.039 535.4 215.409C537.76 229.929 551.16 239.989 565.56 239.989C571.309 240.045 576.953 238.448 581.82 235.388C581.924 235.342 582.04 235.33 582.151 235.353C582.262 235.376 582.363 235.434 582.44 235.518L583.06 236.138C583.122 236.275 583.154 236.423 583.154 236.574C583.154 236.724 583.122 236.872 583.06 237.009C576.067 243.05 567.1 246.316 557.86 246.189C539.99 246.169 523.58 233.919 523.58 214.069C523.58 193.839 539.74 181.669 556.5 181.669ZM535.5 211.089H576.21C576.59 211.089 576.71 210.959 576.71 210.589C579.07 198.589 571.5 185.768 557.47 185.768C542.83 185.768 535.01 196.769 535.01 210.469C535.03 210.839 535.15 211.089 535.52 211.089H535.5Z" fill="white"/>
<path d="M70.4399 311.869V298.869H72.08V311.869H70.4399Z" fill="white"/>
<path d="M79.5799 301.909V311.909H77.9299V298.909H79.3199L87.2699 309.069V298.888H88.9199V311.888H87.4199L79.5799 301.909Z" fill="white"/>
<path d="M102.42 301.599C102.252 301.405 102.056 301.237 101.84 301.099C101.576 300.931 101.299 300.787 101.01 300.669C100.687 300.533 100.352 300.43 100.01 300.359C99.6388 300.278 99.2599 300.237 98.88 300.239C98.0973 300.178 97.3166 300.378 96.66 300.809C96.4272 300.992 96.2415 301.228 96.1181 301.498C95.9946 301.767 95.937 302.062 95.95 302.359C95.9257 302.756 96.0585 303.148 96.32 303.449C96.6314 303.76 97.0168 303.987 97.44 304.109C97.95 304.279 98.59 304.458 99.37 304.638C100.173 304.803 100.96 305.041 101.72 305.349C102.314 305.585 102.838 305.971 103.24 306.469C103.616 307.021 103.802 307.681 103.77 308.349C103.784 308.907 103.66 309.459 103.41 309.958C103.175 310.412 102.831 310.8 102.41 311.088C101.957 311.403 101.448 311.627 100.91 311.749C100.297 311.894 99.6695 311.964 99.04 311.958C98.3909 311.959 97.7438 311.889 97.11 311.749C96.4963 311.61 95.8995 311.406 95.33 311.138C94.766 310.868 94.2358 310.532 93.75 310.138L94.54 308.749C94.7688 308.981 95.0239 309.185 95.3 309.359C95.6367 309.575 95.9913 309.763 96.36 309.919C96.7762 310.095 97.2081 310.233 97.65 310.328C98.1197 310.432 98.599 310.486 99.08 310.489C99.8327 310.529 100.581 310.355 101.24 309.989C101.486 309.833 101.687 309.615 101.822 309.357C101.957 309.099 102.022 308.81 102.01 308.518C102.021 308.305 101.989 308.09 101.915 307.889C101.841 307.688 101.727 307.504 101.58 307.349C101.218 307.012 100.783 306.762 100.31 306.619C99.6374 306.389 98.9531 306.195 98.26 306.039C97.5002 305.86 96.7574 305.616 96.04 305.309C95.5076 305.109 95.0429 304.762 94.7 304.309C94.3802 303.816 94.2228 303.235 94.25 302.648C94.225 301.903 94.4349 301.168 94.85 300.549C95.2756 299.926 95.8783 299.445 96.58 299.169C97.3441 298.869 98.1595 298.723 98.98 298.739C99.5285 298.734 100.076 298.795 100.61 298.919C101.102 299.032 101.578 299.204 102.03 299.429C102.464 299.641 102.871 299.906 103.24 300.219L102.42 301.599Z" fill="white"/>
<path d="M118.06 300.328H113.58V311.869H111.94V300.328H107.45V298.869H118.07L118.06 300.328Z" fill="white"/>
<path d="M122.67 311.869V298.869H124.32V311.869H122.67Z" fill="white"/>
<path d="M139.58 300.328H135.09V311.869H133.44V300.328H128.96V298.869H139.58V300.328Z" fill="white"/>
<path d="M149.58 311.958C148.679 311.987 147.785 311.802 146.97 311.419C146.285 311.08 145.697 310.575 145.26 309.949C144.825 309.314 144.51 308.606 144.33 307.859C144.132 307.067 144.035 306.254 144.04 305.439V298.869H145.68V305.439C145.68 306.064 145.747 306.687 145.88 307.299C145.994 307.871 146.207 308.419 146.51 308.919C146.802 309.394 147.212 309.787 147.7 310.059C148.277 310.357 148.921 310.501 149.57 310.479C150.223 310.498 150.87 310.35 151.45 310.049C151.939 309.769 152.348 309.37 152.64 308.888C152.943 308.389 153.156 307.841 153.27 307.268C153.402 306.667 153.469 306.054 153.47 305.439V298.869H155.11V305.439C155.114 306.281 155.013 307.121 154.81 307.939C154.616 308.691 154.276 309.397 153.81 310.018C153.363 310.623 152.776 311.11 152.1 311.439C151.31 311.802 150.449 311.98 149.58 311.958Z" fill="white"/>
<path d="M170.11 300.328H165.63V311.869H163.98V300.328H159.49V298.869H170.11V300.328Z" fill="white"/>
<path d="M179.58 311.958C178.718 311.973 177.865 311.785 177.09 311.409C176.351 311.049 175.695 310.542 175.16 309.919C174.612 309.292 174.185 308.57 173.9 307.789C173.61 307.015 173.461 306.195 173.46 305.369C173.457 304.519 173.617 303.678 173.93 302.888C174.231 302.112 174.672 301.397 175.23 300.779C175.778 300.168 176.44 299.672 177.18 299.319C177.95 298.957 178.79 298.769 179.64 298.769C180.49 298.769 181.33 298.957 182.1 299.319C182.838 299.692 183.494 300.209 184.03 300.839C184.56 301.474 184.98 302.194 185.27 302.969C185.559 303.736 185.708 304.549 185.71 305.369C185.714 306.217 185.558 307.058 185.25 307.849C184.956 308.624 184.518 309.336 183.96 309.949C183.415 310.562 182.752 311.058 182.01 311.409C181.251 311.772 180.421 311.96 179.58 311.958ZM175.13 305.369C175.125 306.019 175.233 306.665 175.45 307.279C175.649 307.875 175.954 308.431 176.35 308.919C176.739 309.389 177.219 309.777 177.76 310.059C178.336 310.341 178.969 310.488 179.61 310.488C180.251 310.488 180.884 310.341 181.46 310.059C182.004 309.767 182.481 309.365 182.86 308.879C183.252 308.391 183.55 307.835 183.74 307.239C183.938 306.642 184.039 306.017 184.04 305.388C184.045 304.738 183.937 304.092 183.72 303.479C183.513 302.884 183.205 302.329 182.81 301.839C182.424 301.368 181.943 300.983 181.4 300.708C180.837 300.432 180.217 300.291 179.59 300.299C178.944 300.286 178.305 300.434 177.73 300.729C177.183 301.006 176.705 301.403 176.33 301.888C175.551 302.889 175.128 304.121 175.13 305.388V305.369Z" fill="white"/>
<path d="M198.16 311.869V298.869H202.67C203.892 298.826 205.101 299.127 206.16 299.739C207.072 300.296 207.799 301.11 208.25 302.078C208.728 303.101 208.967 304.22 208.95 305.349C208.978 306.541 208.713 307.722 208.18 308.789C207.693 309.744 206.935 310.534 206 311.059C204.981 311.618 203.832 311.898 202.67 311.869H198.16ZM207.28 305.349C207.296 304.452 207.112 303.564 206.74 302.749C206.403 302.017 205.861 301.398 205.18 300.969C204.419 300.526 203.55 300.304 202.67 300.328H199.81V310.398H202.67C203.561 310.43 204.441 310.196 205.2 309.729C205.882 309.29 206.421 308.66 206.75 307.919C207.116 307.112 207.297 306.234 207.28 305.349Z" fill="white"/>
<path d="M222.85 310.398V311.869H214.02V298.869H222.68V300.328H215.68V304.539H221.78V305.919H215.68V310.398H222.85Z" fill="white"/>
<path d="M242.86 301.598C242.688 301.405 242.489 301.237 242.27 301.098C242.01 300.931 241.735 300.787 241.45 300.669C241.127 300.535 240.792 300.432 240.45 300.359C240.079 300.278 239.7 300.237 239.32 300.239C238.54 300.176 237.762 300.377 237.11 300.809C236.874 300.99 236.686 301.226 236.56 301.495C236.435 301.765 236.376 302.061 236.39 302.359C236.37 302.756 236.502 303.146 236.76 303.449C237.074 303.762 237.463 303.989 237.89 304.109C238.39 304.279 239.04 304.458 239.82 304.638C240.62 304.804 241.403 305.042 242.16 305.348C242.756 305.582 243.28 305.969 243.68 306.468C244.061 307.018 244.248 307.68 244.21 308.348C244.222 308.905 244.102 309.457 243.86 309.958C243.621 310.409 243.279 310.797 242.86 311.088C242.405 311.399 241.897 311.623 241.36 311.749C240.747 311.892 240.119 311.963 239.49 311.958C238.205 311.962 236.934 311.682 235.77 311.138C235.209 310.868 234.682 310.532 234.2 310.138L234.98 308.749C235.211 308.978 235.466 309.183 235.74 309.359C236.081 309.573 236.439 309.76 236.81 309.919C237.67 310.285 238.595 310.479 239.53 310.489C240.283 310.529 241.031 310.355 241.69 309.989C241.934 309.831 242.133 309.613 242.266 309.355C242.4 309.097 242.463 308.809 242.45 308.518C242.461 308.304 242.429 308.09 242.355 307.889C242.281 307.688 242.167 307.504 242.02 307.348C241.659 307.009 241.224 306.759 240.75 306.619C240.078 306.388 239.393 306.194 238.7 306.038C237.943 305.862 237.203 305.617 236.49 305.309C235.956 305.107 235.489 304.761 235.14 304.309C234.82 303.816 234.663 303.235 234.69 302.648C234.664 301.901 234.878 301.165 235.3 300.549C235.717 299.965 236.293 299.514 236.96 299.249C237.724 298.95 238.54 298.804 239.36 298.819C239.912 298.815 240.462 298.875 241 298.999C241.492 299.112 241.968 299.284 242.42 299.509C242.853 299.723 243.259 299.989 243.63 300.299L242.86 301.598Z" fill="white"/>
<path d="M252.82 298.869H254.21L259.52 311.869H257.76L256.3 308.059H250.71L249.25 311.869H247.49L252.82 298.869ZM255.82 306.779L253.52 300.779L251.21 306.779H255.82Z" fill="white"/>
<path d="M268.84 311.958C267.936 311.987 267.039 311.802 266.22 311.419C265.538 311.08 264.953 310.574 264.52 309.949C264.082 309.315 263.763 308.607 263.58 307.859C263.387 307.066 263.29 306.254 263.29 305.439V298.869H264.94V305.439C264.937 306.064 265 306.687 265.13 307.299C265.249 307.87 265.462 308.417 265.76 308.919C266.055 309.392 266.464 309.784 266.95 310.059C267.537 310.338 268.179 310.484 268.83 310.484C269.48 310.484 270.123 310.338 270.71 310.059C271.197 309.777 271.606 309.378 271.9 308.898C272.198 308.397 272.411 307.85 272.53 307.279C272.658 306.677 272.722 306.064 272.72 305.449V298.869H274.37V305.439C274.374 306.281 274.273 307.121 274.07 307.939C273.876 308.691 273.536 309.397 273.07 310.018C272.621 310.625 272.031 311.113 271.35 311.439C270.564 311.802 269.705 311.979 268.84 311.958ZM269.41 297.309L268.34 296.949L269.41 295.099H271.02L269.41 297.309Z" fill="white"/>
<path d="M280.04 311.869V298.869H284.58C285.802 298.826 287.011 299.127 288.07 299.739C288.982 300.296 289.709 301.11 290.16 302.078C290.638 303.101 290.877 304.22 290.86 305.349C290.888 306.541 290.623 307.722 290.09 308.789C289.603 309.744 288.845 310.534 287.91 311.059C286.891 311.618 285.742 311.898 284.58 311.869H280.04ZM289.16 305.349C289.176 304.452 288.992 303.564 288.62 302.749C288.283 302.017 287.741 301.398 287.06 300.969C286.299 300.526 285.43 300.304 284.55 300.328H281.69V310.398H284.58C285.471 310.43 286.351 310.196 287.11 309.729C287.792 309.29 288.331 308.66 288.66 307.919C289.016 307.11 289.186 306.232 289.16 305.349Z" fill="white"/>
<path d="M304.73 310.398V311.869H295.9V298.869H304.58V300.328H297.58V304.539H303.68V305.919H297.58V310.398H304.73Z" fill="white"/>
<path d="M316.26 305.259C316.262 304.461 316.401 303.669 316.67 302.919C316.948 302.16 317.358 301.456 317.88 300.839C318.436 300.172 319.137 299.64 319.928 299.283C320.72 298.926 321.582 298.754 322.45 298.779C323.506 298.743 324.548 299.018 325.45 299.569C326.24 300.051 326.88 300.743 327.3 301.569L326 302.419C325.776 301.908 325.433 301.459 325 301.109C324.625 300.793 324.19 300.558 323.72 300.419C323.285 300.29 322.834 300.223 322.38 300.219C321.714 300.208 321.055 300.359 320.46 300.659C319.915 300.943 319.437 301.342 319.06 301.829C318.681 302.32 318.394 302.876 318.21 303.469C318.023 304.057 317.929 304.671 317.93 305.289C317.926 305.95 318.042 306.607 318.27 307.229C318.483 307.83 318.801 308.389 319.21 308.879C319.606 309.349 320.092 309.737 320.64 310.019C321.194 310.3 321.808 310.444 322.43 310.439C322.903 310.435 323.373 310.354 323.82 310.199C324.306 310.032 324.76 309.781 325.16 309.459C325.586 309.101 325.928 308.654 326.16 308.149L327.53 308.899C327.264 309.545 326.837 310.113 326.29 310.549C325.728 310.991 325.091 311.33 324.41 311.549C323.766 311.77 323.091 311.888 322.41 311.899C321.558 311.91 320.716 311.71 319.96 311.319C319.215 310.942 318.555 310.418 318.02 309.779C317.479 309.136 317.052 308.406 316.76 307.619C316.453 306.868 316.284 306.069 316.26 305.259Z" fill="white"/>
<path d="M336.11 298.869H337.5L342.81 311.869H341.05L339.58 308.059H333.99L332.58 311.869H330.78L336.11 298.869ZM339.11 306.779L336.81 300.779L334.51 306.779H339.11Z" fill="white"/>
<path d="M347.3 311.869V298.869H352.86C353.406 298.863 353.947 298.983 354.44 299.218C354.914 299.468 355.335 299.808 355.68 300.218C356.034 300.608 356.316 301.059 356.51 301.548C356.698 302.03 356.797 302.542 356.8 303.059C356.804 303.646 356.689 304.228 356.46 304.768C356.228 305.291 355.887 305.759 355.46 306.138C355.052 306.516 354.557 306.787 354.02 306.929L357.17 311.929H355.3L352.3 307.259H348.85V311.929L347.3 311.869ZM348.94 305.728H352.88C353.303 305.739 353.719 305.609 354.06 305.358C354.406 305.1 354.679 304.755 354.85 304.358C355.04 303.938 355.136 303.48 355.13 303.018C355.133 302.551 355.02 302.091 354.8 301.679C354.602 301.278 354.306 300.934 353.94 300.679C353.598 300.436 353.189 300.306 352.77 300.309H348.94V305.728Z" fill="white"/>
<path d="M362.07 311.869V298.869H366.58C367.799 298.824 369.005 299.126 370.06 299.739C370.977 300.292 371.708 301.107 372.16 302.078C372.633 303.103 372.872 304.22 372.86 305.349C372.888 306.541 372.623 307.722 372.09 308.789C371.6 309.742 370.843 310.531 369.91 311.059C368.891 311.618 367.742 311.898 366.58 311.869H362.07ZM371.19 305.349C371.206 304.452 371.022 303.564 370.65 302.749C370.313 302.014 369.767 301.395 369.08 300.969C368.323 300.526 367.457 300.304 366.58 300.328H363.72V310.398H366.58C367.468 310.431 368.345 310.197 369.1 309.729C369.785 309.29 370.327 308.661 370.66 307.919C371.021 307.111 371.202 306.234 371.19 305.349Z" fill="white"/>
<path d="M377.93 311.869V298.869H379.58V311.869H377.93Z" fill="white"/>
<path d="M390.71 311.958C389.848 311.973 388.995 311.785 388.22 311.409C387.481 311.049 386.825 310.542 386.29 309.919C385.742 309.292 385.315 308.57 385.03 307.789C384.74 307.015 384.591 306.195 384.59 305.369C384.587 304.519 384.747 303.678 385.06 302.888C385.361 302.112 385.802 301.397 386.36 300.779C386.922 300.163 387.603 299.667 388.36 299.319C389.131 298.956 389.973 298.769 390.825 298.769C391.677 298.769 392.519 298.956 393.29 299.319C394.023 299.695 394.676 300.211 395.21 300.839C395.74 301.474 396.16 302.194 396.45 302.969C396.744 303.734 396.893 304.548 396.89 305.369C396.894 306.217 396.738 307.058 396.43 307.849C396.136 308.624 395.698 309.336 395.14 309.949C394.58 310.567 393.9 311.064 393.14 311.409C392.381 311.772 391.551 311.96 390.71 311.958ZM386.26 305.369C386.26 306.019 386.368 306.664 386.58 307.279C386.778 307.877 387.087 308.433 387.49 308.919C387.877 309.391 388.357 309.779 388.9 310.059C389.474 310.342 390.105 310.489 390.745 310.489C391.385 310.489 392.016 310.342 392.59 310.059C393.134 309.767 393.611 309.365 393.99 308.879C394.382 308.391 394.68 307.835 394.87 307.239C395.071 306.642 395.175 306.018 395.18 305.388C395.18 304.738 395.072 304.093 394.86 303.479C394.65 302.883 394.339 302.328 393.94 301.839C393.554 301.368 393.073 300.983 392.53 300.708C391.958 300.432 391.33 300.289 390.695 300.289C390.06 300.289 389.432 300.432 388.86 300.708C388.313 300.986 387.835 301.383 387.46 301.869C386.681 302.869 386.258 304.101 386.26 305.369Z" fill="white"/>
<path d="M401.75 298.869L406.05 309.799L410.34 298.869H412.08L406.8 311.869H405.3L400.01 298.869H401.75Z" fill="white"/>
<path d="M419.47 298.869H420.86L426.17 311.869H424.42L422.96 308.059H417.37L415.9 311.869H414.14L419.47 298.869ZM422.47 306.779L420.17 300.779L417.86 306.779H422.47Z" fill="white"/>
<path d="M438.11 301.599C437.942 301.405 437.746 301.237 437.53 301.099C437.266 300.931 436.989 300.787 436.7 300.669C436.377 300.534 436.042 300.43 435.7 300.359C435.332 300.278 434.957 300.237 434.58 300.239C433.797 300.178 433.017 300.378 432.36 300.809C432.127 300.992 431.942 301.228 431.818 301.498C431.695 301.767 431.637 302.062 431.65 302.359C431.627 302.754 431.756 303.144 432.01 303.449C432.325 303.76 432.714 303.987 433.14 304.109C433.65 304.279 434.29 304.458 435.07 304.638C435.873 304.803 436.66 305.041 437.42 305.349C438.013 305.588 438.536 305.973 438.94 306.469C439.316 307.021 439.502 307.681 439.47 308.349C439.484 308.907 439.36 309.459 439.11 309.958C438.875 310.412 438.531 310.8 438.11 311.088C437.655 311.399 437.147 311.623 436.61 311.749C435.997 311.893 435.369 311.964 434.74 311.958C434.091 311.959 433.444 311.889 432.81 311.749C432.196 311.61 431.599 311.406 431.03 311.138C430.465 310.87 429.934 310.535 429.45 310.138L430.24 308.749C430.469 308.981 430.724 309.185 431 309.359C431.337 309.575 431.691 309.763 432.06 309.919C432.476 310.095 432.908 310.233 433.35 310.328C433.82 310.433 434.299 310.486 434.78 310.489C435.533 310.529 436.281 310.355 436.94 309.989C437.186 309.833 437.387 309.615 437.522 309.357C437.657 309.099 437.722 308.81 437.71 308.518C437.721 308.305 437.689 308.09 437.615 307.889C437.541 307.688 437.427 307.504 437.28 307.349C436.918 307.012 436.483 306.762 436.01 306.619C435.353 306.392 434.686 306.198 434.01 306.039C433.25 305.86 432.507 305.616 431.79 305.309C431.256 305.107 430.789 304.761 430.44 304.309C430.124 303.815 429.97 303.234 430 302.648C429.975 301.903 430.185 301.168 430.6 300.549C431.021 299.965 431.601 299.514 432.27 299.249C433.031 298.949 433.843 298.803 434.66 298.819C435.212 298.814 435.762 298.874 436.3 298.999C436.792 299.112 437.268 299.284 437.72 299.509C438.153 299.723 438.559 299.989 438.93 300.299L438.11 301.599Z" fill="white"/>
<path d="M443.58 305.259C443.582 304.461 443.721 303.669 443.99 302.919C444.269 302.16 444.678 301.456 445.2 300.839C445.756 300.172 446.457 299.64 447.248 299.283C448.04 298.926 448.902 298.754 449.77 298.779C450.826 298.743 451.869 299.018 452.77 299.569C453.56 300.051 454.2 300.743 454.62 301.569L453.32 302.419C453.096 301.908 452.753 301.459 452.32 301.109C451.945 300.793 451.51 300.558 451.04 300.419C450.605 300.29 450.154 300.223 449.7 300.219C449.034 300.208 448.375 300.359 447.78 300.659C447.235 300.943 446.757 301.342 446.38 301.829C446.002 302.32 445.714 302.876 445.53 303.469C445.344 304.057 445.249 304.671 445.25 305.289C445.246 305.95 445.362 306.607 445.59 307.229C445.803 307.83 446.121 308.389 446.53 308.879C446.926 309.349 447.413 309.737 447.96 310.019C448.514 310.3 449.128 310.444 449.75 310.439C450.223 310.435 450.693 310.354 451.14 310.199C451.626 310.032 452.08 309.781 452.48 309.459C452.906 309.101 453.248 308.654 453.48 308.149L454.85 308.899C454.584 309.545 454.157 310.113 453.61 310.549C453.048 310.991 452.411 311.33 451.73 311.549C451.086 311.77 450.411 311.888 449.73 311.899C448.878 311.91 448.037 311.71 447.28 311.319C446.536 310.942 445.875 310.418 445.34 309.779C444.799 309.136 444.372 308.406 444.08 307.619C443.774 306.868 443.604 306.069 443.58 305.259Z" fill="white"/>
<path d="M464.97 311.958C464.066 311.987 463.169 311.802 462.35 311.419C461.67 311.077 461.086 310.572 460.65 309.949C460.211 309.317 459.895 308.608 459.72 307.859C459.519 307.068 459.418 306.255 459.42 305.439V298.869H461.07V305.439C461.072 306.063 461.135 306.686 461.26 307.299C461.377 307.872 461.594 308.42 461.9 308.919C462.193 309.394 462.602 309.787 463.09 310.059C463.664 310.356 464.304 310.501 464.95 310.479C465.606 310.5 466.257 310.352 466.84 310.049C467.329 309.769 467.738 309.37 468.03 308.888C468.328 308.387 468.541 307.84 468.66 307.268C468.789 306.667 468.852 306.054 468.85 305.439V298.869H470.5V305.439C470.504 306.281 470.404 307.121 470.2 307.939C470.006 308.691 469.666 309.397 469.2 310.018C468.753 310.623 468.166 311.11 467.49 311.439C466.7 311.801 465.839 311.978 464.97 311.958Z" fill="white"/>
<path d="M476.18 311.869V298.869H477.82V310.398H485.08V311.869H476.18Z" fill="white"/>
<path d="M493.58 298.869H494.97L500.28 311.869H498.53L497.07 308.059H491.48L490.01 311.869H488.25L493.58 298.869ZM496.58 306.779L494.28 300.779L491.97 306.779H496.58Z" fill="white"/>
<path d="M504.76 311.869V298.869H510.32C510.866 298.863 511.407 298.983 511.9 299.218C512.376 299.465 512.798 299.805 513.14 300.218C513.494 300.608 513.775 301.059 513.97 301.548C514.158 302.03 514.257 302.542 514.26 303.059C514.264 303.646 514.149 304.228 513.92 304.768C513.692 305.293 513.35 305.761 512.92 306.138C512.512 306.516 512.017 306.787 511.48 306.929L514.63 311.929H512.77L509.77 307.259H506.33V311.929L504.76 311.869ZM506.41 305.728H510.34C510.763 305.739 511.178 305.609 511.52 305.358C511.866 305.1 512.139 304.755 512.31 304.358C512.503 303.938 512.602 303.481 512.6 303.018C512.603 302.551 512.49 302.091 512.27 301.679C512.069 301.28 511.774 300.937 511.41 300.679C511.066 300.434 510.652 300.304 510.23 300.309H506.41V305.728Z" fill="white"/>
<path d="M298.68 0.00852238C285.26 -0.241478 272.97 5.00852 264.81 15.7885C264.735 15.9059 264.705 16.0463 264.725 16.184C264.746 16.3217 264.815 16.4475 264.92 16.5385L265.28 16.9185C265.65 17.2985 265.9 17.2985 266.03 16.9185C269.322 13.4299 273.312 10.6733 277.74 8.8281C282.168 6.98289 286.934 6.09036 291.73 6.20853C310.28 6.55853 326.62 21.3185 329.86 42.3185C328.508 41.3605 327.064 40.5398 325.55 39.8685C323.438 38.9131 321.192 38.2891 318.89 38.0185C314.96 29.2585 307.7 22.8785 297.78 19.8885C288.15 17.0113 277.852 17.2881 268.39 20.6785C253.89 26.0285 244.87 38.1285 241.51 52.7885C235.62 78.4885 251.26 100.959 275.51 106.519C288.6 109.519 301.7 106.899 311.9 98.0185C311.988 97.9113 312.036 97.7771 312.036 97.6385C312.036 97.5 311.988 97.3657 311.9 97.2585L311.62 96.8085C311.34 96.3685 311.09 96.3085 310.89 96.6485C306.958 99.3842 302.495 101.263 297.79 102.162C293.085 103.061 288.244 102.961 283.58 101.869C263.11 97.1685 249.18 74.9785 254.88 50.1685C260.18 27.0185 278.74 19.5285 293.77 22.9785C304.72 25.4785 312.04 29.9785 316.18 37.9785C313.327 38.0242 310.515 38.6549 307.915 39.8314C305.316 41.0079 302.987 42.7053 301.07 44.8185H300.66C298.905 43.6593 296.996 42.7505 294.99 42.1185C290.37 40.7418 285.438 40.8291 280.87 42.3685C279.44 42.8385 269.05 46.4685 265.74 57.0285C264.304 61.9065 264.547 67.1251 266.43 71.8485C269.21 79.2485 274.83 82.9985 277.43 84.6685C284.17 89.0285 290.69 89.4485 295.24 89.7385C305.088 90.3794 314.887 87.8946 323.24 82.6385C326.724 80.4258 329.878 77.7326 332.61 74.6385C339.39 66.7385 342.75 56.5885 342.96 45.7185C343.47 19.2585 323.58 0.468522 298.68 0.00852238ZM297.91 58.8785C298.185 57.227 298.697 55.6238 299.43 54.1185C299.886 53.1768 300.417 52.2738 301.02 51.4185C303.896 53.291 306.068 56.0674 307.192 59.3101C308.316 62.5528 308.33 66.0774 307.23 69.3285C306.581 71.4079 305.628 73.3794 304.4 75.1785H304.35C302.282 73.7501 300.624 71.8058 299.54 69.5385C298.571 67.6519 297.967 65.5993 297.76 63.4885C297.606 61.952 297.657 60.4018 297.91 58.8785ZM319.05 77.9685C310.95 85.0185 301.42 85.4485 297.95 85.5685C294.48 85.6885 284.87 86.0185 277.11 79.5685C275.46 78.1885 270.47 73.8185 269.28 66.7485C268.754 64.1976 268.885 61.5551 269.66 59.0685C271.81 52.5185 278.12 49.7785 279.72 49.0685C286.96 45.9185 293.85 48.1985 295.72 48.8085L296.34 49.0185C295.7 50.4002 295.194 51.8401 294.83 53.3185C293.592 57.9287 294.079 62.832 296.2 67.1085C297.054 68.9504 298.147 70.6719 299.45 72.2285C300.6 73.8004 302.141 75.0448 303.92 75.8385H303.97C302.861 77.2209 301.484 78.3649 299.922 79.2018C298.36 80.0386 296.645 80.5512 294.88 80.7085C294.75 80.7085 294.67 80.7585 294.67 80.9585L294.73 81.5685C294.723 81.6082 294.725 81.6489 294.738 81.6874C294.75 81.7258 294.771 81.7607 294.799 81.7892C294.828 81.8177 294.863 81.8388 294.901 81.8509C294.939 81.863 294.98 81.8656 295.02 81.8585C298.018 81.543 300.87 80.4059 303.263 78.5726C305.655 76.7393 307.495 74.2809 308.58 71.4685C310.461 66.8397 310.811 61.7307 309.58 56.8885C308.72 53.5063 306.997 50.4052 304.58 47.8885C310.14 44.0185 318.01 43.0285 325.58 46.4185C327.326 47.1921 328.958 48.2015 330.43 49.4185C330.43 49.9385 330.43 50.4185 330.43 50.9785C330.21 63.3285 325.58 72.2685 319.05 77.9685Z" fill="white"/>
</svg>
